<svg width="446" height="72" viewBox="0 0 446 72" fill="none" xmlns="http://www.w3.org/2000/svg">
<g filter="url(#filter0_d_18_152)">
<rect x="8" y="8" width="56" height="56" rx="10" fill="white" shape-rendering="crispEdges"/>
<path fill-rule="evenodd" clip-rule="evenodd" d="M47.5553 33.2057H23.79C23.238 33.2057 22.79 32.7577 22.79 32.2057C22.79 31.6537 23.238 31.2057 23.79 31.2057H47.5553C48.1073 31.2057 48.5553 31.6537 48.5553 32.2057C48.5553 32.7577 48.1073 33.2057 47.5553 33.2057Z" fill="#8456EC"/>
<path fill-rule="evenodd" clip-rule="evenodd" d="M41.6016 38.4128C41.0496 38.4128 40.5963 37.9648 40.5963 37.4128C40.5963 36.8608 41.0376 36.4128 41.5896 36.4128H41.6016C42.1536 36.4128 42.6016 36.8608 42.6016 37.4128C42.6016 37.9648 42.1536 38.4128 41.6016 38.4128Z" fill="#8456EC"/>
<path fill-rule="evenodd" clip-rule="evenodd" d="M35.6849 38.4128C35.1329 38.4128 34.6796 37.9648 34.6796 37.4128C34.6796 36.8608 35.1209 36.4128 35.6729 36.4128H35.6849C36.2369 36.4128 36.6849 36.8608 36.6849 37.4128C36.6849 37.9648 36.2369 38.4128 35.6849 38.4128Z" fill="#8456EC"/>
<path fill-rule="evenodd" clip-rule="evenodd" d="M29.7558 38.4128C29.2038 38.4128 28.7492 37.9648 28.7492 37.4128C28.7492 36.8608 29.1918 36.4128 29.7438 36.4128H29.7558C30.3078 36.4128 30.7558 36.8608 30.7558 37.4128C30.7558 37.9648 30.3078 38.4128 29.7558 38.4128Z" fill="#8456EC"/>
<path fill-rule="evenodd" clip-rule="evenodd" d="M41.6016 43.5951C41.0496 43.5951 40.5963 43.1471 40.5963 42.5951C40.5963 42.0431 41.0376 41.5951 41.5896 41.5951H41.6016C42.1536 41.5951 42.6016 42.0431 42.6016 42.5951C42.6016 43.1471 42.1536 43.5951 41.6016 43.5951Z" fill="#8456EC"/>
<path fill-rule="evenodd" clip-rule="evenodd" d="M35.6849 43.5951C35.1329 43.5951 34.6796 43.1471 34.6796 42.5951C34.6796 42.0431 35.1209 41.5951 35.6729 41.5951H35.6849C36.2369 41.5951 36.6849 42.0431 36.6849 42.5951C36.6849 43.1471 36.2369 43.5951 35.6849 43.5951Z" fill="#8456EC"/>
<path fill-rule="evenodd" clip-rule="evenodd" d="M29.7558 43.5951C29.2038 43.5951 28.7492 43.1471 28.7492 42.5951C28.7492 42.0431 29.1918 41.5951 29.7438 41.5951H29.7558C30.3078 41.5951 30.7558 42.0431 30.7558 42.5951C30.7558 43.1471 30.3078 43.5951 29.7558 43.5951Z" fill="#8456EC"/>
<path fill-rule="evenodd" clip-rule="evenodd" d="M41.058 27.7213C40.506 27.7213 40.058 27.2733 40.058 26.7213V22.3333C40.058 21.7813 40.506 21.3333 41.058 21.3333C41.61 21.3333 42.058 21.7813 42.058 22.3333V26.7213C42.058 27.2733 41.61 27.7213 41.058 27.7213Z" fill="#8456EC"/>
<path fill-rule="evenodd" clip-rule="evenodd" d="M30.287 27.7213C29.735 27.7213 29.287 27.2733 29.287 26.7213V22.3333C29.287 21.7813 29.735 21.3333 30.287 21.3333C30.839 21.3333 31.287 21.7813 31.287 22.3333V26.7213C31.287 27.2733 30.839 27.7213 30.287 27.7213Z" fill="#8456EC"/>
<mask id="mask0_18_152" style="mask-type:alpha" maskUnits="userSpaceOnUse" x="22" y="23" width="27" height="27">
<path fill-rule="evenodd" clip-rule="evenodd" d="M22.6667 23.4388H48.6667V50H22.6667V23.4388Z" fill="white"/>
</mask>
<g mask="url(#mask0_18_152)">
<path fill-rule="evenodd" clip-rule="evenodd" d="M30.028 25.4388C26.5707 25.4388 24.6667 27.2828 24.6667 30.6308V42.6961C24.6667 46.1175 26.5707 48.0001 30.028 48.0001H41.3053C44.7627 48.0001 46.6667 46.1521 46.6667 42.7975V30.6308C46.672 28.9841 46.2293 27.7041 45.3507 26.8241C44.4467 25.9175 43.0533 25.4388 41.3173 25.4388H30.028ZM41.3053 50.0001H30.028C25.488 50.0001 22.6667 47.2015 22.6667 42.6961V30.6308C22.6667 26.1935 25.488 23.4388 30.028 23.4388H41.3173C43.596 23.4388 45.48 24.1215 46.7667 25.4108C48.016 26.6655 48.6733 28.4695 48.6667 30.6335V42.7975C48.6667 47.2401 45.8453 50.0001 41.3053 50.0001Z" fill="#8456EC"/>
</g>
</g>
<path d="M85.248 21.7109V20.0059C86.0391 19.9707 86.5928 19.918 86.9092 19.8477C87.4131 19.7363 87.8232 19.5137 88.1396 19.1797C88.3564 18.9512 88.5205 18.6465 88.6318 18.2656C88.6963 18.0371 88.7285 17.8672 88.7285 17.7559H90.8115V30.5H88.2451V21.7109H85.248ZM97.0957 26.7998C97.0957 27.4268 97.2568 27.9131 97.5791 28.2588C97.9072 28.6045 98.3584 28.7773 98.9326 28.7773C99.5068 28.7773 99.9551 28.6045 100.277 28.2588C100.605 27.9131 100.77 27.4268 100.77 26.7998C100.77 26.1494 100.603 25.6572 100.269 25.3232C99.9404 24.9834 99.4951 24.8135 98.9326 24.8135C98.3701 24.8135 97.9219 24.9834 97.5879 25.3232C97.2598 25.6572 97.0957 26.1494 97.0957 26.7998ZM94.4941 26.9668C94.4941 26.252 94.6553 25.6045 94.9775 25.0244C95.3057 24.4443 95.7832 24.0078 96.4102 23.7148C95.7949 23.3047 95.3936 22.8623 95.2061 22.3877C95.0244 21.9072 94.9336 21.459 94.9336 21.043C94.9336 20.1172 95.2822 19.3291 95.9795 18.6787C96.6768 18.0225 97.6611 17.6943 98.9326 17.6943C100.204 17.6943 101.188 18.0225 101.886 18.6787C102.583 19.3291 102.932 20.1172 102.932 21.043C102.932 21.459 102.838 21.9072 102.65 22.3877C102.469 22.8623 102.07 23.2754 101.455 23.627C102.082 23.9785 102.554 24.4443 102.87 25.0244C103.187 25.6045 103.345 26.252 103.345 26.9668C103.345 28.0391 102.946 28.9531 102.149 29.709C101.358 30.459 100.251 30.834 98.8271 30.834C97.4033 30.834 96.3252 30.459 95.5928 29.709C94.8604 28.9531 94.4941 28.0391 94.4941 26.9668ZM97.3242 21.3242C97.3242 21.7871 97.4648 22.165 97.7461 22.458C98.0332 22.751 98.4287 22.8975 98.9326 22.8975C99.4424 22.8975 99.835 22.751 100.11 22.458C100.392 22.165 100.532 21.7871 100.532 21.3242C100.532 20.8203 100.392 20.4277 100.11 20.1465C99.835 19.8594 99.4424 19.7158 98.9326 19.7158C98.4287 19.7158 98.0332 19.8594 97.7461 20.1465C97.4648 20.4277 97.3242 20.8203 97.3242 21.3242ZM113.294 25.6045H116.581L114.964 20.5068L113.294 25.6045ZM113.461 17.5449H116.52L121.107 30.5H118.172L117.337 27.8369H112.564L111.668 30.5H108.838L113.461 17.5449ZM125.054 20.9199V26.6943C125.054 27.2393 125.118 27.6494 125.247 27.9248C125.476 28.4111 125.924 28.6543 126.592 28.6543C127.447 28.6543 128.033 28.3086 128.35 27.6172C128.514 27.2422 128.596 26.7471 128.596 26.1318V20.9199H131.136V30.5H128.701V29.1465C128.678 29.1758 128.619 29.2637 128.525 29.4102C128.432 29.5566 128.32 29.6855 128.191 29.7969C127.799 30.1484 127.418 30.3887 127.049 30.5176C126.686 30.6465 126.258 30.7109 125.766 30.7109C124.348 30.7109 123.393 30.2012 122.9 29.1816C122.625 28.6191 122.487 27.79 122.487 26.6943V20.9199H125.054ZM137.675 28.4434C138.261 28.4434 138.756 28.2236 139.16 27.7842C139.564 27.3389 139.767 26.6328 139.767 25.666C139.767 24.7578 139.573 24.0664 139.187 23.5918C138.806 23.1172 138.293 22.8799 137.648 22.8799C136.77 22.8799 136.163 23.293 135.829 24.1191C135.653 24.5586 135.565 25.1006 135.565 25.7451C135.565 26.3018 135.659 26.7969 135.847 27.2305C136.187 28.0391 136.796 28.4434 137.675 28.4434ZM137.051 20.6914C137.531 20.6914 137.95 20.7646 138.308 20.9111C138.917 21.1631 139.409 21.626 139.784 22.2998V20.9199H142.219V30.0078C142.219 31.2441 142.011 32.1758 141.595 32.8027C140.88 33.8809 139.509 34.4199 137.481 34.4199C136.257 34.4199 135.258 34.1797 134.484 33.6992C133.711 33.2188 133.283 32.501 133.201 31.5459H135.926C135.996 31.8389 136.11 32.0498 136.269 32.1787C136.538 32.4072 136.992 32.5215 137.631 32.5215C138.533 32.5215 139.137 32.2197 139.441 31.6162C139.641 31.2295 139.74 30.5791 139.74 29.665V29.0498C139.5 29.46 139.242 29.7676 138.967 29.9727C138.469 30.3535 137.821 30.5439 137.024 30.5439C135.794 30.5439 134.81 30.1133 134.071 29.252C133.339 28.3848 132.973 27.2129 132.973 25.7363C132.973 24.3125 133.327 23.1172 134.036 22.1504C134.745 21.1777 135.75 20.6914 137.051 20.6914ZM147.062 20.9199V26.6943C147.062 27.2393 147.126 27.6494 147.255 27.9248C147.483 28.4111 147.932 28.6543 148.6 28.6543C149.455 28.6543 150.041 28.3086 150.357 27.6172C150.521 27.2422 150.604 26.7471 150.604 26.1318V20.9199H153.144V30.5H150.709V29.1465C150.686 29.1758 150.627 29.2637 150.533 29.4102C150.439 29.5566 150.328 29.6855 150.199 29.7969C149.807 30.1484 149.426 30.3887 149.057 30.5176C148.693 30.6465 148.266 30.7109 147.773 30.7109C146.355 30.7109 145.4 30.2012 144.908 29.1816C144.633 28.6191 144.495 27.79 144.495 26.6943V20.9199H147.062ZM157.521 27.4414C157.573 27.8867 157.688 28.2031 157.863 28.3906C158.174 28.7246 158.748 28.8916 159.586 28.8916C160.078 28.8916 160.468 28.8184 160.755 28.6719C161.048 28.5254 161.194 28.3057 161.194 28.0127C161.194 27.7314 161.077 27.5176 160.843 27.3711C160.608 27.2246 159.738 26.9727 158.232 26.6152C157.148 26.3457 156.384 26.0088 155.938 25.6045C155.493 25.2061 155.271 24.6318 155.271 23.8818C155.271 22.9971 155.616 22.2383 156.308 21.6055C157.005 20.9668 157.983 20.6475 159.243 20.6475C160.438 20.6475 161.411 20.8877 162.161 21.3682C162.917 21.8428 163.351 22.666 163.462 23.8379H160.957C160.922 23.5156 160.831 23.2607 160.685 23.0732C160.409 22.7334 159.94 22.5635 159.278 22.5635C158.733 22.5635 158.344 22.6484 158.109 22.8184C157.881 22.9883 157.767 23.1875 157.767 23.416C157.767 23.7031 157.89 23.9111 158.136 24.04C158.382 24.1748 159.252 24.4062 160.746 24.7344C161.742 24.9688 162.489 25.3232 162.987 25.7979C163.479 26.2783 163.726 26.8789 163.726 27.5996C163.726 28.5488 163.371 29.3252 162.662 29.9287C161.959 30.5264 160.869 30.8252 159.393 30.8252C157.887 30.8252 156.773 30.5088 156.053 29.876C155.338 29.2373 154.98 28.4258 154.98 27.4414H157.521ZM164.604 22.792V21.0078H165.94V18.3359H168.419V21.0078H169.975V22.792H168.419V27.8545C168.419 28.2471 168.469 28.4932 168.568 28.5928C168.668 28.6865 168.973 28.7334 169.482 28.7334C169.559 28.7334 169.638 28.7334 169.72 28.7334C169.808 28.7275 169.893 28.7217 169.975 28.7158V30.5879L168.788 30.6318C167.604 30.6729 166.796 30.4678 166.362 30.0166C166.081 29.7295 165.94 29.2871 165.94 28.6895V22.792H164.604ZM178.5 26.4658C178.5 27.1514 178.685 27.7109 179.054 28.1445C179.423 28.5781 179.892 28.7949 180.46 28.7949C181.017 28.7949 181.453 28.5869 181.77 28.1709C182.092 27.749 182.253 27.2041 182.253 26.5361C182.253 25.792 182.071 25.2236 181.708 24.8311C181.345 24.4326 180.899 24.2334 180.372 24.2334C179.944 24.2334 179.566 24.3623 179.238 24.6201C178.746 25.001 178.5 25.6162 178.5 26.4658ZM182.024 20.9639C182.024 20.7588 181.945 20.5332 181.787 20.2871C181.518 19.8887 181.11 19.6895 180.565 19.6895C179.751 19.6895 179.171 20.1465 178.825 21.0605C178.638 21.5645 178.509 22.3086 178.438 23.293C178.749 22.9238 179.109 22.6543 179.52 22.4844C179.93 22.3145 180.398 22.2295 180.926 22.2295C182.057 22.2295 182.982 22.6133 183.703 23.3809C184.43 24.1484 184.793 25.1299 184.793 26.3252C184.793 27.5146 184.438 28.5635 183.729 29.4717C183.021 30.3799 181.919 30.834 180.425 30.834C178.819 30.834 177.636 30.1631 176.874 28.8213C176.282 27.7725 175.986 26.4189 175.986 24.7607C175.986 23.7881 176.027 22.9971 176.109 22.3877C176.256 21.3037 176.54 20.4014 176.962 19.6807C177.325 19.0654 177.8 18.5703 178.386 18.1953C178.978 17.8203 179.684 17.6328 180.504 17.6328C181.688 17.6328 182.631 17.9375 183.334 18.5469C184.037 19.1504 184.433 19.9561 184.521 20.9639H182.024ZM187.482 21.2979H190.146V23.917H187.482V21.2979ZM187.482 27.8809H190.146V30.5H187.482V27.8809ZM194.558 24.251C194.558 25.7158 194.678 26.8379 194.918 27.6172C195.158 28.3906 195.65 28.7773 196.395 28.7773C197.139 28.7773 197.625 28.3906 197.854 27.6172C198.088 26.8379 198.205 25.7158 198.205 24.251C198.205 22.7158 198.088 21.5791 197.854 20.8408C197.625 20.1025 197.139 19.7334 196.395 19.7334C195.65 19.7334 195.158 20.1025 194.918 20.8408C194.678 21.5791 194.558 22.7158 194.558 24.251ZM196.395 17.668C198.018 17.668 199.154 18.2393 199.805 19.3818C200.461 20.5244 200.789 22.1475 200.789 24.251C200.789 26.3545 200.461 27.9746 199.805 29.1113C199.154 30.248 198.018 30.8164 196.395 30.8164C194.771 30.8164 193.632 30.248 192.976 29.1113C192.325 27.9746 192 26.3545 192 24.251C192 22.1475 192.325 20.5244 192.976 19.3818C193.632 18.2393 194.771 17.668 196.395 17.668ZM204.577 24.251C204.577 25.7158 204.697 26.8379 204.938 27.6172C205.178 28.3906 205.67 28.7773 206.414 28.7773C207.158 28.7773 207.645 28.3906 207.873 27.6172C208.107 26.8379 208.225 25.7158 208.225 24.251C208.225 22.7158 208.107 21.5791 207.873 20.8408C207.645 20.1025 207.158 19.7334 206.414 19.7334C205.67 19.7334 205.178 20.1025 204.938 20.8408C204.697 21.5791 204.577 22.7158 204.577 24.251ZM206.414 17.668C208.037 17.668 209.174 18.2393 209.824 19.3818C210.48 20.5244 210.809 22.1475 210.809 24.251C210.809 26.3545 210.48 27.9746 209.824 29.1113C209.174 30.248 208.037 30.8164 206.414 30.8164C204.791 30.8164 203.651 30.248 202.995 29.1113C202.345 27.9746 202.02 26.3545 202.02 24.251C202.02 22.1475 202.345 20.5244 202.995 19.3818C203.651 18.2393 204.791 17.668 206.414 17.668ZM220.143 21.667C220.143 20.9932 219.964 20.5127 219.606 20.2256C219.255 19.9385 218.76 19.7949 218.121 19.7949H215.599V23.6094H218.121C218.76 23.6094 219.255 23.4541 219.606 23.1436C219.964 22.833 220.143 22.3408 220.143 21.667ZM222.823 21.6494C222.823 23.1787 222.437 24.2598 221.663 24.8926C220.89 25.5254 219.785 25.8418 218.35 25.8418H215.599V30.5H212.909V17.5449H218.552C219.853 17.5449 220.89 17.8789 221.663 18.5469C222.437 19.2148 222.823 20.249 222.823 21.6494ZM233.44 17.5449H237.334V30.5H234.812V21.7373C234.812 21.4854 234.814 21.1338 234.82 20.6826C234.826 20.2256 234.829 19.874 234.829 19.6279L232.377 30.5H229.749L227.314 19.6279C227.314 19.874 227.317 20.2256 227.323 20.6826C227.329 21.1338 227.332 21.4854 227.332 21.7373V30.5H224.81V17.5449H228.747L231.103 27.7314L233.44 17.5449Z" fill="#240D57"/>
<path d="M85.4766 42.459H87.0762V45.0869H88.5791V46.3789H87.0762V52.5225C87.0762 52.8506 87.1875 53.0703 87.4102 53.1816C87.5332 53.2461 87.7383 53.2783 88.0254 53.2783C88.1016 53.2783 88.1836 53.2783 88.2715 53.2783C88.3594 53.2725 88.4619 53.2637 88.5791 53.252V54.5C88.3975 54.5527 88.207 54.5908 88.0078 54.6143C87.8145 54.6377 87.6035 54.6494 87.375 54.6494C86.6367 54.6494 86.1357 54.4619 85.8721 54.0869C85.6084 53.7061 85.4766 53.2139 85.4766 52.6104V46.3789H84.2021V45.0869H85.4766V42.459ZM93.9053 53.4805C94.9541 53.4805 95.6719 53.085 96.0586 52.2939C96.4512 51.4971 96.6475 50.6123 96.6475 49.6396C96.6475 48.7607 96.5068 48.0459 96.2256 47.4951C95.7803 46.6279 95.0127 46.1943 93.9229 46.1943C92.9561 46.1943 92.2529 46.5635 91.8135 47.3018C91.374 48.04 91.1543 48.9307 91.1543 49.9736C91.1543 50.9756 91.374 51.8105 91.8135 52.4785C92.2529 53.1465 92.9502 53.4805 93.9053 53.4805ZM93.9668 44.8145C95.1797 44.8145 96.2051 45.2188 97.043 46.0273C97.8809 46.8359 98.2998 48.0254 98.2998 49.5957C98.2998 51.1133 97.9307 52.3672 97.1924 53.3574C96.4541 54.3477 95.3086 54.8428 93.7559 54.8428C92.4609 54.8428 91.4326 54.4062 90.6709 53.5332C89.9092 52.6543 89.5283 51.4766 89.5283 50C89.5283 48.418 89.9297 47.1582 90.7324 46.2207C91.5352 45.2832 92.6133 44.8145 93.9668 44.8145ZM105.287 45.7109V44.0059C106.078 43.9707 106.632 43.918 106.948 43.8477C107.452 43.7363 107.862 43.5137 108.179 43.1797C108.396 42.9512 108.56 42.6465 108.671 42.2656C108.735 42.0371 108.768 41.8672 108.768 41.7559H110.851V54.5H108.284V45.7109H105.287ZM114.595 46.2383C114.595 44.873 114.987 43.7686 115.772 42.9248C116.563 42.0752 117.589 41.6504 118.849 41.6504C120.788 41.6504 122.118 42.5088 122.839 44.2256C123.249 45.1982 123.454 46.4785 123.454 48.0664C123.454 49.6074 123.258 50.8936 122.865 51.9248C122.115 53.8877 120.738 54.8691 118.734 54.8691C117.779 54.8691 116.921 54.5879 116.159 54.0254C115.397 53.457 114.961 52.6309 114.85 51.5469H117.346C117.404 51.9219 117.562 52.2266 117.82 52.4609C118.078 52.6953 118.421 52.8125 118.849 52.8125C119.675 52.8125 120.255 52.3555 120.589 51.4414C120.771 50.9375 120.885 50.2021 120.932 49.2354C120.703 49.5225 120.46 49.7422 120.202 49.8945C119.733 50.1758 119.156 50.3164 118.471 50.3164C117.457 50.3164 116.558 49.9678 115.772 49.2705C114.987 48.5674 114.595 47.5566 114.595 46.2383ZM119.016 48.2773C119.361 48.2773 119.687 48.1777 119.991 47.9785C120.56 47.6152 120.844 46.9854 120.844 46.0889C120.844 45.3682 120.674 44.7969 120.334 44.375C120 43.9531 119.54 43.7422 118.954 43.7422C118.526 43.7422 118.16 43.8623 117.855 44.1025C117.375 44.4775 117.135 45.1133 117.135 46.0098C117.135 46.7656 117.287 47.334 117.592 47.7148C117.902 48.0898 118.377 48.2773 119.016 48.2773ZM133.333 49.6045H136.62L135.003 44.5068L133.333 49.6045ZM133.5 41.5449H136.559L141.146 54.5H138.211L137.376 51.8369H132.604L131.707 54.5H128.877L133.5 41.5449ZM145.093 44.9199V50.6943C145.093 51.2393 145.157 51.6494 145.286 51.9248C145.515 52.4111 145.963 52.6543 146.631 52.6543C147.486 52.6543 148.072 52.3086 148.389 51.6172C148.553 51.2422 148.635 50.7471 148.635 50.1318V44.9199H151.175V54.5H148.74V53.1465C148.717 53.1758 148.658 53.2637 148.564 53.4102C148.471 53.5566 148.359 53.6855 148.23 53.7969C147.838 54.1484 147.457 54.3887 147.088 54.5176C146.725 54.6465 146.297 54.7109 145.805 54.7109C144.387 54.7109 143.432 54.2012 142.939 53.1816C142.664 52.6191 142.526 51.79 142.526 50.6943V44.9199H145.093ZM157.714 52.4434C158.3 52.4434 158.795 52.2236 159.199 51.7842C159.604 51.3389 159.806 50.6328 159.806 49.666C159.806 48.7578 159.612 48.0664 159.226 47.5918C158.845 47.1172 158.332 46.8799 157.688 46.8799C156.809 46.8799 156.202 47.293 155.868 48.1191C155.692 48.5586 155.604 49.1006 155.604 49.7451C155.604 50.3018 155.698 50.7969 155.886 51.2305C156.226 52.0391 156.835 52.4434 157.714 52.4434ZM157.09 44.6914C157.57 44.6914 157.989 44.7646 158.347 44.9111C158.956 45.1631 159.448 45.626 159.823 46.2998V44.9199H162.258V54.0078C162.258 55.2441 162.05 56.1758 161.634 56.8027C160.919 57.8809 159.548 58.4199 157.521 58.4199C156.296 58.4199 155.297 58.1797 154.523 57.6992C153.75 57.2188 153.322 56.501 153.24 55.5459H155.965C156.035 55.8389 156.149 56.0498 156.308 56.1787C156.577 56.4072 157.031 56.5215 157.67 56.5215C158.572 56.5215 159.176 56.2197 159.48 55.6162C159.68 55.2295 159.779 54.5791 159.779 53.665V53.0498C159.539 53.46 159.281 53.7676 159.006 53.9727C158.508 54.3535 157.86 54.5439 157.063 54.5439C155.833 54.5439 154.849 54.1133 154.11 53.252C153.378 52.3848 153.012 51.2129 153.012 49.7363C153.012 48.3125 153.366 47.1172 154.075 46.1504C154.784 45.1777 155.789 44.6914 157.09 44.6914ZM167.101 44.9199V50.6943C167.101 51.2393 167.165 51.6494 167.294 51.9248C167.522 52.4111 167.971 52.6543 168.639 52.6543C169.494 52.6543 170.08 52.3086 170.396 51.6172C170.561 51.2422 170.643 50.7471 170.643 50.1318V44.9199H173.183V54.5H170.748V53.1465C170.725 53.1758 170.666 53.2637 170.572 53.4102C170.479 53.5566 170.367 53.6855 170.238 53.7969C169.846 54.1484 169.465 54.3887 169.096 54.5176C168.732 54.6465 168.305 54.7109 167.812 54.7109C166.395 54.7109 165.439 54.2012 164.947 53.1816C164.672 52.6191 164.534 51.79 164.534 50.6943V44.9199H167.101ZM177.56 51.4414C177.612 51.8867 177.727 52.2031 177.902 52.3906C178.213 52.7246 178.787 52.8916 179.625 52.8916C180.117 52.8916 180.507 52.8184 180.794 52.6719C181.087 52.5254 181.233 52.3057 181.233 52.0127C181.233 51.7314 181.116 51.5176 180.882 51.3711C180.647 51.2246 179.777 50.9727 178.271 50.6152C177.188 50.3457 176.423 50.0088 175.978 49.6045C175.532 49.2061 175.31 48.6318 175.31 47.8818C175.31 46.9971 175.655 46.2383 176.347 45.6055C177.044 44.9668 178.022 44.6475 179.282 44.6475C180.478 44.6475 181.45 44.8877 182.2 45.3682C182.956 45.8428 183.39 46.666 183.501 47.8379H180.996C180.961 47.5156 180.87 47.2607 180.724 47.0732C180.448 46.7334 179.979 46.5635 179.317 46.5635C178.772 46.5635 178.383 46.6484 178.148 46.8184C177.92 46.9883 177.806 47.1875 177.806 47.416C177.806 47.7031 177.929 47.9111 178.175 48.04C178.421 48.1748 179.291 48.4062 180.785 48.7344C181.781 48.9688 182.528 49.3232 183.026 49.7979C183.519 50.2783 183.765 50.8789 183.765 51.5996C183.765 52.5488 183.41 53.3252 182.701 53.9287C181.998 54.5264 180.908 54.8252 179.432 54.8252C177.926 54.8252 176.812 54.5088 176.092 53.876C175.377 53.2373 175.02 52.4258 175.02 51.4414H177.56ZM184.644 46.792V45.0078H185.979V42.3359H188.458V45.0078H190.014V46.792H188.458V51.8545C188.458 52.2471 188.508 52.4932 188.607 52.5928C188.707 52.6865 189.012 52.7334 189.521 52.7334C189.598 52.7334 189.677 52.7334 189.759 52.7334C189.847 52.7275 189.932 52.7217 190.014 52.7158V54.5879L188.827 54.6318C187.644 54.6729 186.835 54.4678 186.401 54.0166C186.12 53.7295 185.979 53.2871 185.979 52.6895V46.792H184.644ZM196.711 45.7109V44.0059C197.502 43.9707 198.056 43.918 198.372 43.8477C198.876 43.7363 199.286 43.5137 199.603 43.1797C199.819 42.9512 199.983 42.6465 200.095 42.2656C200.159 42.0371 200.191 41.8672 200.191 41.7559H202.274V54.5H199.708V45.7109H196.711ZM207.521 45.2979H210.185V47.917H207.521V45.2979ZM207.521 51.8809H210.185V54.5H207.521V51.8809ZM214.597 48.251C214.597 49.7158 214.717 50.8379 214.957 51.6172C215.197 52.3906 215.689 52.7773 216.434 52.7773C217.178 52.7773 217.664 52.3906 217.893 51.6172C218.127 50.8379 218.244 49.7158 218.244 48.251C218.244 46.7158 218.127 45.5791 217.893 44.8408C217.664 44.1025 217.178 43.7334 216.434 43.7334C215.689 43.7334 215.197 44.1025 214.957 44.8408C214.717 45.5791 214.597 46.7158 214.597 48.251ZM216.434 41.668C218.057 41.668 219.193 42.2393 219.844 43.3818C220.5 44.5244 220.828 46.1475 220.828 48.251C220.828 50.3545 220.5 51.9746 219.844 53.1113C219.193 54.248 218.057 54.8164 216.434 54.8164C214.811 54.8164 213.671 54.248 213.015 53.1113C212.364 51.9746 212.039 50.3545 212.039 48.251C212.039 46.1475 212.364 44.5244 213.015 43.3818C213.671 42.2393 214.811 41.668 216.434 41.668ZM224.616 48.251C224.616 49.7158 224.736 50.8379 224.977 51.6172C225.217 52.3906 225.709 52.7773 226.453 52.7773C227.197 52.7773 227.684 52.3906 227.912 51.6172C228.146 50.8379 228.264 49.7158 228.264 48.251C228.264 46.7158 228.146 45.5791 227.912 44.8408C227.684 44.1025 227.197 43.7334 226.453 43.7334C225.709 43.7334 225.217 44.1025 224.977 44.8408C224.736 45.5791 224.616 46.7158 224.616 48.251ZM226.453 41.668C228.076 41.668 229.213 42.2393 229.863 43.3818C230.52 44.5244 230.848 46.1475 230.848 48.251C230.848 50.3545 230.52 51.9746 229.863 53.1113C229.213 54.248 228.076 54.8164 226.453 54.8164C224.83 54.8164 223.69 54.248 223.034 53.1113C222.384 51.9746 222.059 50.3545 222.059 48.251C222.059 46.1475 222.384 44.5244 223.034 43.3818C223.69 42.2393 224.83 41.668 226.453 41.668ZM240.182 45.667C240.182 44.9932 240.003 44.5127 239.646 44.2256C239.294 43.9385 238.799 43.7949 238.16 43.7949H235.638V47.6094H238.16C238.799 47.6094 239.294 47.4541 239.646 47.1436C240.003 46.833 240.182 46.3408 240.182 45.667ZM242.862 45.6494C242.862 47.1787 242.476 48.2598 241.702 48.8926C240.929 49.5254 239.824 49.8418 238.389 49.8418H235.638V54.5H232.948V41.5449H238.591C239.892 41.5449 240.929 41.8789 241.702 42.5469C242.476 43.2148 242.862 44.249 242.862 45.6494ZM253.479 41.5449H257.373V54.5H254.851V45.7373C254.851 45.4854 254.854 45.1338 254.859 44.6826C254.865 44.2256 254.868 43.874 254.868 43.6279L252.416 54.5H249.788L247.354 43.6279C247.354 43.874 247.356 44.2256 247.362 44.6826C247.368 45.1338 247.371 45.4854 247.371 45.7373V54.5H244.849V41.5449H248.786L251.142 51.7314L253.479 41.5449ZM266.795 41.5889V49.5693C266.795 50.5068 266.971 51.2861 267.322 51.9072C267.844 52.8447 268.723 53.3135 269.959 53.3135C271.441 53.3135 272.449 52.8066 272.982 51.793C273.27 51.2422 273.413 50.501 273.413 49.5693V41.5889H275.188V48.8398C275.188 50.4277 274.975 51.6494 274.547 52.5049C273.762 54.0635 272.279 54.8428 270.1 54.8428C267.92 54.8428 266.44 54.0635 265.661 52.5049C265.233 51.6494 265.02 50.4277 265.02 48.8398V41.5889H266.795ZM287.3 41.5889V43.127H282.949V54.5H281.174V43.127H276.823V41.5889H287.3ZM294.349 41.2373C295.983 41.2373 297.252 41.668 298.154 42.5293C299.057 43.3906 299.558 44.3691 299.657 45.4648H297.952C297.759 44.6328 297.372 43.9736 296.792 43.4873C296.218 43.001 295.409 42.7578 294.366 42.7578C293.095 42.7578 292.066 43.2061 291.281 44.1025C290.502 44.9932 290.112 46.3613 290.112 48.207C290.112 49.7188 290.464 50.9463 291.167 51.8896C291.876 52.8271 292.931 53.2959 294.331 53.2959C295.62 53.2959 296.602 52.8008 297.275 51.8105C297.633 51.2891 297.899 50.6035 298.075 49.7539H299.78C299.628 51.1133 299.124 52.2529 298.269 53.1729C297.243 54.2803 295.86 54.834 294.12 54.834C292.62 54.834 291.36 54.3799 290.341 53.4717C288.999 52.2705 288.328 50.416 288.328 47.9082C288.328 46.0039 288.832 44.4424 289.84 43.2236C290.93 41.8994 292.433 41.2373 294.349 41.2373ZM306.363 50.6504V49.1738H310.195V45.3154H311.698V49.1738H315.53V50.6504H311.698V54.5H310.195V50.6504H306.363ZM317.789 45.5879V44.375C318.932 44.2637 319.729 44.0791 320.18 43.8213C320.631 43.5576 320.968 42.9395 321.19 41.9668H322.438V54.5H320.751V45.5879H317.789ZM330.955 41.9141C332.584 41.9141 333.762 42.585 334.488 43.9268C335.051 44.9639 335.332 46.3848 335.332 48.1895C335.332 49.9004 335.077 51.3154 334.567 52.4346C333.829 54.04 332.622 54.8428 330.946 54.8428C329.435 54.8428 328.31 54.1865 327.571 52.874C326.956 51.7783 326.648 50.3076 326.648 48.4619C326.648 47.0322 326.833 45.8047 327.202 44.7793C327.894 42.8691 329.145 41.9141 330.955 41.9141ZM330.938 53.4014C331.758 53.4014 332.411 53.0381 332.897 52.3115C333.384 51.585 333.627 50.2314 333.627 48.251C333.627 46.8213 333.451 45.6465 333.1 44.7266C332.748 43.8008 332.065 43.3379 331.052 43.3379C330.12 43.3379 329.438 43.7773 329.004 44.6562C328.576 45.5293 328.362 46.8184 328.362 48.5234C328.362 49.8066 328.5 50.8379 328.775 51.6172C329.197 52.8066 329.918 53.4014 330.938 53.4014Z" fill="#4F4F4F"/>
<path d="M431 29L438 36L431 43" stroke="#BDBDBD" stroke-width="1.5" stroke-linecap="round" stroke-linejoin="round"/>
<defs>
<filter id="filter0_d_18_152" x="3" y="3" width="66" height="66" filterUnits="userSpaceOnUse" color-interpolation-filters="sRGB">
<feFlood flood-opacity="0" result="BackgroundImageFix"/>
<feColorMatrix in="SourceAlpha" type="matrix" values="0 0 0 0 0 0 0 0 0 0 0 0 0 0 0 0 0 0 127 0" result="hardAlpha"/>
<feOffset/>
<feGaussianBlur stdDeviation="2.5"/>
<feComposite in2="hardAlpha" operator="out"/>
<feColorMatrix type="matrix" values="0 0 0 0 0 0 0 0 0 0 0 0 0 0 0 0 0 0 0.1 0"/>
<feBlend mode="normal" in2="BackgroundImageFix" result="effect1_dropShadow_18_152"/>
<feBlend mode="normal" in="SourceGraphic" in2="effect1_dropShadow_18_152" result="shape"/>
</filter>
</defs>
</svg>
