<svg width="446" height="72" viewBox="0 0 446 72" fill="none" xmlns="http://www.w3.org/2000/svg">
<g filter="url(#filter0_d_18_161)">
<rect x="8" y="8" width="56" height="56" rx="10" fill="white" shape-rendering="crispEdges"/>
<path fill-rule="evenodd" clip-rule="evenodd" d="M36.334 31.3333C35.0473 31.3333 34.0007 32.38 34.0007 33.668C34.0007 34.9547 35.0473 36 36.334 36C37.6207 36 38.6673 34.9547 38.6673 33.668C38.6673 32.38 37.6207 31.3333 36.334 31.3333ZM36.334 38C33.9447 38 32.0007 36.0573 32.0007 33.668C32.0007 31.2773 33.9447 29.3333 36.334 29.3333C38.7233 29.3333 40.6673 31.2773 40.6673 33.668C40.6673 36.0573 38.7233 38 36.334 38Z" fill="#8456EC"/>
<mask id="mask0_18_161" style="mask-type:alpha" maskUnits="userSpaceOnUse" x="25" y="22" width="23" height="27">
<path fill-rule="evenodd" clip-rule="evenodd" d="M25.3333 22.6667H47.3327V48.6667H25.3333V22.6667Z" fill="white"/>
</mask>
<g mask="url(#mask0_18_161)">
<path fill-rule="evenodd" clip-rule="evenodd" d="M36.3327 24.6667C31.37 24.6667 27.3327 28.7427 27.3327 33.7507C27.3327 40.1227 34.8313 46.3307 36.3327 46.6613C37.834 46.3293 45.3327 40.1213 45.3327 33.7507C45.3327 28.7427 41.2953 24.6667 36.3327 24.6667ZM36.3327 48.6667C33.9407 48.6667 25.3327 41.264 25.3327 33.7507C25.3327 27.6387 30.2673 22.6667 36.3327 22.6667C42.398 22.6667 47.3327 27.6387 47.3327 33.7507C47.3327 41.264 38.7247 48.6667 36.3327 48.6667Z" fill="#8456EC"/>
</g>
</g>
<path d="M87.3311 26.501C87.4131 27.0928 87.5742 27.5352 87.8145 27.8281C88.2539 28.3613 89.0068 28.6279 90.0732 28.6279C90.7119 28.6279 91.2305 28.5576 91.6289 28.417C92.3848 28.1475 92.7627 27.6465 92.7627 26.9141C92.7627 26.4863 92.5752 26.1553 92.2002 25.9209C91.8252 25.6924 91.2363 25.4902 90.4336 25.3145L89.0625 25.0068C87.7148 24.7021 86.7832 24.3711 86.2676 24.0137C85.3945 23.416 84.958 22.4814 84.958 21.21C84.958 20.0498 85.3799 19.0859 86.2236 18.3184C87.0674 17.5508 88.3066 17.167 89.9414 17.167C91.3066 17.167 92.4697 17.5303 93.4307 18.2568C94.3975 18.9775 94.9043 20.0264 94.9512 21.4033H92.3496C92.3027 20.624 91.9629 20.0703 91.3301 19.7422C90.9082 19.5254 90.3838 19.417 89.7568 19.417C89.0596 19.417 88.5029 19.5576 88.0869 19.8389C87.6709 20.1201 87.4629 20.5127 87.4629 21.0166C87.4629 21.4795 87.668 21.8252 88.0781 22.0537C88.3418 22.2061 88.9043 22.3848 89.7656 22.5898L91.998 23.126C92.9766 23.3604 93.7148 23.6738 94.2129 24.0664C94.9863 24.6758 95.373 25.5576 95.373 26.7119C95.373 27.8955 94.9189 28.8799 94.0107 29.665C93.1084 30.4443 91.8311 30.834 90.1787 30.834C88.4912 30.834 87.1641 30.4502 86.1973 29.6826C85.2305 28.9092 84.7471 27.8486 84.7471 26.501H87.3311ZM96.1904 22.792V21.0078H97.5264V18.3359H100.005V21.0078H101.561V22.792H100.005V27.8545C100.005 28.2471 100.055 28.4932 100.154 28.5928C100.254 28.6865 100.559 28.7334 101.068 28.7334C101.145 28.7334 101.224 28.7334 101.306 28.7334C101.394 28.7275 101.479 28.7217 101.561 28.7158V30.5879L100.374 30.6318C99.1904 30.6729 98.3818 30.4678 97.9482 30.0166C97.667 29.7295 97.5264 29.2871 97.5264 28.6895V22.792H96.1904ZM108.372 20.6914C108.419 20.6914 108.457 20.6943 108.486 20.7002C108.521 20.7002 108.595 20.7031 108.706 20.709V23.2754C108.548 23.2578 108.407 23.2461 108.284 23.2402C108.161 23.2344 108.062 23.2314 107.985 23.2314C106.978 23.2314 106.301 23.5596 105.955 24.2158C105.762 24.585 105.665 25.1533 105.665 25.9209V30.5H103.143V20.9199H105.533V22.5898C105.92 21.9512 106.257 21.5146 106.544 21.2803C107.013 20.8877 107.622 20.6914 108.372 20.6914ZM113.962 22.7305C113.382 22.7305 112.931 22.9121 112.608 23.2754C112.292 23.6387 112.093 24.1309 112.011 24.752H115.904C115.863 24.0898 115.661 23.5889 115.298 23.249C114.94 22.9033 114.495 22.7305 113.962 22.7305ZM113.962 20.665C114.759 20.665 115.477 20.8145 116.115 21.1133C116.754 21.4121 117.281 21.8838 117.697 22.5283C118.072 23.0967 118.315 23.7559 118.427 24.5059C118.491 24.9453 118.518 25.5781 118.506 26.4043H111.949C111.984 27.3652 112.286 28.0391 112.854 28.4258C113.2 28.666 113.616 28.7861 114.103 28.7861C114.618 28.7861 115.037 28.6396 115.359 28.3467C115.535 28.1885 115.69 27.9688 115.825 27.6875H118.383C118.318 28.2559 118.022 28.833 117.495 29.4189C116.675 30.3506 115.526 30.8164 114.05 30.8164C112.831 30.8164 111.756 30.4238 110.824 29.6387C109.893 28.8535 109.427 27.5762 109.427 25.8066C109.427 24.1484 109.846 22.877 110.684 21.9922C111.527 21.1074 112.62 20.665 113.962 20.665ZM123.981 22.7305C123.401 22.7305 122.95 22.9121 122.628 23.2754C122.312 23.6387 122.112 24.1309 122.03 24.752H125.924C125.883 24.0898 125.681 23.5889 125.317 23.249C124.96 22.9033 124.515 22.7305 123.981 22.7305ZM123.981 20.665C124.778 20.665 125.496 20.8145 126.135 21.1133C126.773 21.4121 127.301 21.8838 127.717 22.5283C128.092 23.0967 128.335 23.7559 128.446 24.5059C128.511 24.9453 128.537 25.5781 128.525 26.4043H121.969C122.004 27.3652 122.306 28.0391 122.874 28.4258C123.22 28.666 123.636 28.7861 124.122 28.7861C124.638 28.7861 125.057 28.6396 125.379 28.3467C125.555 28.1885 125.71 27.9688 125.845 27.6875H128.402C128.338 28.2559 128.042 28.833 127.515 29.4189C126.694 30.3506 125.546 30.8164 124.069 30.8164C122.851 30.8164 121.775 30.4238 120.844 29.6387C119.912 28.8535 119.446 27.5762 119.446 25.8066C119.446 24.1484 119.865 22.877 120.703 21.9922C121.547 21.1074 122.64 20.665 123.981 20.665ZM129.237 22.792V21.0078H130.573V18.3359H133.052V21.0078H134.607V22.792H133.052V27.8545C133.052 28.2471 133.102 28.4932 133.201 28.5928C133.301 28.6865 133.605 28.7334 134.115 28.7334C134.191 28.7334 134.271 28.7334 134.353 28.7334C134.44 28.7275 134.525 28.7217 134.607 28.7158V30.5879L133.421 30.6318C132.237 30.6729 131.429 30.4678 130.995 30.0166C130.714 29.7295 130.573 29.2871 130.573 28.6895V22.792H129.237ZM146.534 20.6914C147.524 20.6914 148.333 20.9521 148.96 21.4736C149.593 21.9893 149.909 22.8477 149.909 24.0488V30.5H147.343V24.6729C147.343 24.1689 147.275 23.7822 147.141 23.5127C146.895 23.0205 146.426 22.7744 145.734 22.7744C144.885 22.7744 144.302 23.1348 143.985 23.8555C143.821 24.2363 143.739 24.7227 143.739 25.3145V30.5H141.243V20.9375H143.66V22.335C143.982 21.8428 144.287 21.4883 144.574 21.2715C145.09 20.8848 145.743 20.6914 146.534 20.6914ZM157.512 25.8418C157.354 25.9414 157.192 26.0234 157.028 26.0879C156.87 26.1465 156.65 26.2021 156.369 26.2549L155.807 26.3604C155.279 26.4541 154.901 26.5684 154.673 26.7031C154.286 26.9316 154.093 27.2861 154.093 27.7666C154.093 28.1943 154.21 28.5049 154.444 28.6982C154.685 28.8857 154.975 28.9795 155.314 28.9795C155.854 28.9795 156.349 28.8213 156.8 28.5049C157.257 28.1885 157.494 27.6113 157.512 26.7734V25.8418ZM155.991 24.6729C156.454 24.6143 156.785 24.541 156.984 24.4531C157.342 24.3008 157.521 24.0635 157.521 23.7412C157.521 23.3486 157.383 23.0791 157.107 22.9326C156.838 22.7803 156.439 22.7041 155.912 22.7041C155.32 22.7041 154.901 22.8506 154.655 23.1436C154.479 23.3604 154.362 23.6533 154.304 24.0225H151.887C151.939 23.1846 152.174 22.4961 152.59 21.957C153.252 21.1133 154.389 20.6914 156 20.6914C157.049 20.6914 157.98 20.8994 158.795 21.3154C159.609 21.7314 160.017 22.5166 160.017 23.6709V28.0654C160.017 28.3701 160.022 28.7393 160.034 29.1729C160.052 29.501 160.102 29.7236 160.184 29.8408C160.266 29.958 160.389 30.0547 160.553 30.1309V30.5H157.828C157.752 30.3066 157.699 30.125 157.67 29.9551C157.641 29.7852 157.617 29.5918 157.6 29.375C157.254 29.75 156.855 30.0693 156.404 30.333C155.865 30.6436 155.256 30.7988 154.576 30.7988C153.709 30.7988 152.991 30.5527 152.423 30.0605C151.86 29.5625 151.579 28.8594 151.579 27.9512C151.579 26.7734 152.033 25.9209 152.941 25.3936C153.439 25.1064 154.172 24.9014 155.139 24.7783L155.991 24.6729ZM172.954 20.709C173.376 20.709 173.792 20.791 174.202 20.9551C174.612 21.1191 174.984 21.4062 175.318 21.8164C175.588 22.1504 175.77 22.5605 175.863 23.0469C175.922 23.3691 175.951 23.8408 175.951 24.4619L175.934 30.5H173.367V24.4004C173.367 24.0371 173.309 23.7383 173.191 23.5039C172.969 23.0586 172.559 22.8359 171.961 22.8359C171.27 22.8359 170.792 23.123 170.528 23.6973C170.394 24.002 170.326 24.3682 170.326 24.7959V30.5H167.804V24.7959C167.804 24.2275 167.745 23.8145 167.628 23.5566C167.417 23.0938 167.004 22.8623 166.389 22.8623C165.674 22.8623 165.193 23.0938 164.947 23.5566C164.812 23.8203 164.745 24.2129 164.745 24.7344V30.5H162.205V20.9375H164.64V22.335C164.95 21.8369 165.243 21.4824 165.519 21.2715C166.005 20.8965 166.635 20.709 167.408 20.709C168.141 20.709 168.732 20.8701 169.184 21.1924C169.547 21.4912 169.822 21.875 170.01 22.3438C170.338 21.7812 170.745 21.3682 171.231 21.1045C171.747 20.8408 172.321 20.709 172.954 20.709ZM182.042 22.7305C181.462 22.7305 181.011 22.9121 180.688 23.2754C180.372 23.6387 180.173 24.1309 180.091 24.752H183.984C183.943 24.0898 183.741 23.5889 183.378 23.249C183.021 22.9033 182.575 22.7305 182.042 22.7305ZM182.042 20.665C182.839 20.665 183.557 20.8145 184.195 21.1133C184.834 21.4121 185.361 21.8838 185.777 22.5283C186.152 23.0967 186.396 23.7559 186.507 24.5059C186.571 24.9453 186.598 25.5781 186.586 26.4043H180.029C180.064 27.3652 180.366 28.0391 180.935 28.4258C181.28 28.666 181.696 28.7861 182.183 28.7861C182.698 28.7861 183.117 28.6396 183.439 28.3467C183.615 28.1885 183.771 27.9688 183.905 27.6875H186.463C186.398 28.2559 186.103 28.833 185.575 29.4189C184.755 30.3506 183.606 30.8164 182.13 30.8164C180.911 30.8164 179.836 30.4238 178.904 29.6387C177.973 28.8535 177.507 27.5762 177.507 25.8066C177.507 24.1484 177.926 22.877 178.764 21.9922C179.607 21.1074 180.7 20.665 182.042 20.665Z" fill="#240D57"/>
<path d="M86.5137 50.334C86.5547 51.0664 86.7275 51.6611 87.0322 52.1182C87.6123 52.9736 88.6348 53.4014 90.0996 53.4014C90.7559 53.4014 91.3535 53.3076 91.8926 53.1201C92.9355 52.7568 93.457 52.1064 93.457 51.1689C93.457 50.4658 93.2373 49.9648 92.7979 49.666C92.3525 49.373 91.6553 49.1182 90.7061 48.9014L88.957 48.5059C87.8145 48.248 87.0059 47.9639 86.5312 47.6533C85.7109 47.1143 85.3008 46.3086 85.3008 45.2363C85.3008 44.0762 85.7021 43.124 86.5049 42.3799C87.3076 41.6357 88.4443 41.2637 89.915 41.2637C91.2686 41.2637 92.417 41.5918 93.3604 42.248C94.3096 42.8984 94.7842 43.9414 94.7842 45.377H93.1406C93.0527 44.6855 92.8652 44.1553 92.5781 43.7861C92.0449 43.1123 91.1396 42.7754 89.8623 42.7754C88.8311 42.7754 88.0898 42.9922 87.6387 43.4258C87.1875 43.8594 86.9619 44.3633 86.9619 44.9375C86.9619 45.5703 87.2256 46.0332 87.7529 46.3262C88.0986 46.5137 88.8809 46.748 90.0996 47.0293L91.9102 47.4424C92.7832 47.6416 93.457 47.9141 93.9316 48.2598C94.752 48.8633 95.1621 49.7393 95.1621 50.8877C95.1621 52.3174 94.6406 53.3398 93.5977 53.9551C92.5605 54.5703 91.3535 54.8779 89.9766 54.8779C88.3711 54.8779 87.1143 54.4678 86.2061 53.6475C85.2979 52.833 84.8525 51.7285 84.8701 50.334H86.5137ZM98.748 45.0869V51.3359C98.748 51.8164 98.8242 52.209 98.9766 52.5137C99.2578 53.0762 99.7822 53.3574 100.55 53.3574C101.651 53.3574 102.401 52.8652 102.8 51.8809C103.017 51.3535 103.125 50.6299 103.125 49.71V45.0869H104.707V54.5H103.213L103.23 53.1113C103.025 53.4688 102.771 53.7705 102.466 54.0166C101.862 54.5088 101.13 54.7549 100.269 54.7549C98.9268 54.7549 98.0127 54.3066 97.5264 53.4102C97.2627 52.9297 97.1309 52.2881 97.1309 51.4854V45.0869H98.748ZM107.062 41.5449H108.601V46.2295C108.946 45.7783 109.359 45.4355 109.84 45.2012C110.32 44.9609 110.842 44.8408 111.404 44.8408C112.576 44.8408 113.525 45.2451 114.252 46.0537C114.984 46.8564 115.351 48.043 115.351 49.6133C115.351 51.1016 114.99 52.3379 114.27 53.3223C113.549 54.3066 112.55 54.7988 111.272 54.7988C110.558 54.7988 109.954 54.626 109.462 54.2803C109.169 54.0752 108.855 53.7471 108.521 53.2959V54.5H107.062V41.5449ZM111.176 53.4014C112.031 53.4014 112.67 53.0615 113.092 52.3818C113.52 51.7021 113.733 50.8057 113.733 49.6924C113.733 48.7021 113.52 47.8818 113.092 47.2314C112.67 46.5811 112.046 46.2559 111.22 46.2559C110.499 46.2559 109.866 46.5225 109.321 47.0557C108.782 47.5889 108.513 48.4678 108.513 49.6924C108.513 50.5771 108.624 51.2949 108.847 51.8457C109.263 52.8828 110.039 53.4014 111.176 53.4014ZM118.787 45.0869V51.3359C118.787 51.8164 118.863 52.209 119.016 52.5137C119.297 53.0762 119.821 53.3574 120.589 53.3574C121.69 53.3574 122.44 52.8652 122.839 51.8809C123.056 51.3535 123.164 50.6299 123.164 49.71V45.0869H124.746V54.5H123.252L123.27 53.1113C123.064 53.4688 122.81 53.7705 122.505 54.0166C121.901 54.5088 121.169 54.7549 120.308 54.7549C118.966 54.7549 118.052 54.3066 117.565 53.4102C117.302 52.9297 117.17 52.2881 117.17 51.4854V45.0869H118.787ZM127.269 45.0869H128.771V46.7129C128.895 46.3965 129.196 46.0127 129.677 45.5615C130.157 45.1045 130.711 44.876 131.338 44.876C131.367 44.876 131.417 44.8789 131.487 44.8848C131.558 44.8906 131.678 44.9023 131.848 44.9199V46.5898C131.754 46.5723 131.666 46.5605 131.584 46.5547C131.508 46.5488 131.423 46.5459 131.329 46.5459C130.532 46.5459 129.92 46.8037 129.492 47.3193C129.064 47.8291 128.851 48.418 128.851 49.0859V54.5H127.269V45.0869ZM133.096 41.5449H134.634V46.2295C134.979 45.7783 135.393 45.4355 135.873 45.2012C136.354 44.9609 136.875 44.8408 137.438 44.8408C138.609 44.8408 139.559 45.2451 140.285 46.0537C141.018 46.8564 141.384 48.043 141.384 49.6133C141.384 51.1016 141.023 52.3379 140.303 53.3223C139.582 54.3066 138.583 54.7988 137.306 54.7988C136.591 54.7988 135.987 54.626 135.495 54.2803C135.202 54.0752 134.889 53.7471 134.555 53.2959V54.5H133.096V41.5449ZM137.209 53.4014C138.064 53.4014 138.703 53.0615 139.125 52.3818C139.553 51.7021 139.767 50.8057 139.767 49.6924C139.767 48.7021 139.553 47.8818 139.125 47.2314C138.703 46.5811 138.079 46.2559 137.253 46.2559C136.532 46.2559 135.899 46.5225 135.354 47.0557C134.815 47.5889 134.546 48.4678 134.546 49.6924C134.546 50.5771 134.657 51.2949 134.88 51.8457C135.296 52.8828 136.072 53.4014 137.209 53.4014ZM143.572 56.3369C143.977 56.2666 144.261 55.9824 144.425 55.4844C144.513 55.2207 144.557 54.9658 144.557 54.7197C144.557 54.6787 144.554 54.6406 144.548 54.6055C144.548 54.5762 144.542 54.541 144.53 54.5H143.572V52.584H145.453V54.3594C145.453 55.0566 145.312 55.6689 145.031 56.1963C144.75 56.7236 144.264 57.0488 143.572 57.1719V56.3369ZM154.611 50.334C154.652 51.0664 154.825 51.6611 155.13 52.1182C155.71 52.9736 156.732 53.4014 158.197 53.4014C158.854 53.4014 159.451 53.3076 159.99 53.1201C161.033 52.7568 161.555 52.1064 161.555 51.1689C161.555 50.4658 161.335 49.9648 160.896 49.666C160.45 49.373 159.753 49.1182 158.804 48.9014L157.055 48.5059C155.912 48.248 155.104 47.9639 154.629 47.6533C153.809 47.1143 153.398 46.3086 153.398 45.2363C153.398 44.0762 153.8 43.124 154.603 42.3799C155.405 41.6357 156.542 41.2637 158.013 41.2637C159.366 41.2637 160.515 41.5918 161.458 42.248C162.407 42.8984 162.882 43.9414 162.882 45.377H161.238C161.15 44.6855 160.963 44.1553 160.676 43.7861C160.143 43.1123 159.237 42.7754 157.96 42.7754C156.929 42.7754 156.188 42.9922 155.736 43.4258C155.285 43.8594 155.06 44.3633 155.06 44.9375C155.06 45.5703 155.323 46.0332 155.851 46.3262C156.196 46.5137 156.979 46.748 158.197 47.0293L160.008 47.4424C160.881 47.6416 161.555 47.9141 162.029 48.2598C162.85 48.8633 163.26 49.7393 163.26 50.8877C163.26 52.3174 162.738 53.3398 161.695 53.9551C160.658 54.5703 159.451 54.8779 158.074 54.8779C156.469 54.8779 155.212 54.4678 154.304 53.6475C153.396 52.833 152.95 51.7285 152.968 50.334H154.611ZM165.58 42.459H167.18V45.0869H168.683V46.3789H167.18V52.5225C167.18 52.8506 167.291 53.0703 167.514 53.1816C167.637 53.2461 167.842 53.2783 168.129 53.2783C168.205 53.2783 168.287 53.2783 168.375 53.2783C168.463 53.2725 168.565 53.2637 168.683 53.252V54.5C168.501 54.5527 168.311 54.5908 168.111 54.6143C167.918 54.6377 167.707 54.6494 167.479 54.6494C166.74 54.6494 166.239 54.4619 165.976 54.0869C165.712 53.7061 165.58 53.2139 165.58 52.6104V46.3789H164.306V45.0869H165.58V42.459ZM171.486 51.9951C171.486 52.4521 171.653 52.8125 171.987 53.0762C172.321 53.3398 172.717 53.4717 173.174 53.4717C173.73 53.4717 174.27 53.3428 174.791 53.085C175.67 52.6572 176.109 51.957 176.109 50.9844V49.71C175.916 49.833 175.667 49.9355 175.362 50.0176C175.058 50.0996 174.759 50.1582 174.466 50.1934L173.508 50.3164C172.934 50.3926 172.503 50.5127 172.216 50.6768C171.729 50.9521 171.486 51.3916 171.486 51.9951ZM175.318 48.7959C175.682 48.749 175.925 48.5967 176.048 48.3389C176.118 48.1982 176.153 47.9961 176.153 47.7324C176.153 47.1934 175.96 46.8037 175.573 46.5635C175.192 46.3174 174.645 46.1943 173.93 46.1943C173.104 46.1943 172.518 46.417 172.172 46.8623C171.979 47.1084 171.853 47.4746 171.794 47.9609H170.317C170.347 46.8008 170.722 45.9951 171.442 45.5439C172.169 45.0869 173.01 44.8584 173.965 44.8584C175.072 44.8584 175.972 45.0693 176.663 45.4912C177.349 45.9131 177.691 46.5693 177.691 47.46V52.8828C177.691 53.0469 177.724 53.1787 177.788 53.2783C177.858 53.3779 178.002 53.4277 178.219 53.4277C178.289 53.4277 178.368 53.4248 178.456 53.4189C178.544 53.4072 178.638 53.3926 178.737 53.375V54.5439C178.491 54.6143 178.304 54.6582 178.175 54.6758C178.046 54.6934 177.87 54.7021 177.647 54.7021C177.103 54.7021 176.707 54.5088 176.461 54.1221C176.332 53.917 176.241 53.627 176.188 53.252C175.866 53.6738 175.403 54.04 174.8 54.3506C174.196 54.6611 173.531 54.8164 172.805 54.8164C171.932 54.8164 171.217 54.5527 170.66 54.0254C170.109 53.4922 169.834 52.8271 169.834 52.0303C169.834 51.1572 170.106 50.4805 170.651 50C171.196 49.5195 171.911 49.2236 172.796 49.1123L175.318 48.7959ZM180.609 42.459H182.209V45.0869H183.712V46.3789H182.209V52.5225C182.209 52.8506 182.32 53.0703 182.543 53.1816C182.666 53.2461 182.871 53.2783 183.158 53.2783C183.234 53.2783 183.316 53.2783 183.404 53.2783C183.492 53.2725 183.595 53.2637 183.712 53.252V54.5C183.53 54.5527 183.34 54.5908 183.141 54.6143C182.947 54.6377 182.736 54.6494 182.508 54.6494C181.77 54.6494 181.269 54.4619 181.005 54.0869C180.741 53.7061 180.609 53.2139 180.609 52.6104V46.3789H179.335V45.0869H180.609V42.459ZM189.223 44.876C189.891 44.876 190.538 45.0342 191.165 45.3506C191.792 45.6611 192.27 46.0654 192.598 46.5635C192.914 47.0381 193.125 47.5918 193.23 48.2246C193.324 48.6582 193.371 49.3496 193.371 50.2988H186.472C186.501 51.2539 186.727 52.0215 187.148 52.6016C187.57 53.1758 188.224 53.4629 189.108 53.4629C189.935 53.4629 190.594 53.1904 191.086 52.6455C191.367 52.3291 191.566 51.9629 191.684 51.5469H193.239C193.198 51.8926 193.061 52.2793 192.826 52.707C192.598 53.1289 192.34 53.4746 192.053 53.7441C191.572 54.2129 190.978 54.5293 190.269 54.6934C189.888 54.7871 189.457 54.834 188.977 54.834C187.805 54.834 186.812 54.4092 185.997 53.5596C185.183 52.7041 184.775 51.5088 184.775 49.9736C184.775 48.4619 185.186 47.2344 186.006 46.291C186.826 45.3477 187.898 44.876 189.223 44.876ZM191.745 49.042C191.681 48.3564 191.531 47.8086 191.297 47.3984C190.863 46.6367 190.14 46.2559 189.126 46.2559C188.399 46.2559 187.79 46.5195 187.298 47.0469C186.806 47.5684 186.545 48.2334 186.516 49.042H191.745ZM195.656 56.3369C196.061 56.2666 196.345 55.9824 196.509 55.4844C196.597 55.2207 196.641 54.9658 196.641 54.7197C196.641 54.6787 196.638 54.6406 196.632 54.6055C196.632 54.5762 196.626 54.541 196.614 54.5H195.656V52.584H197.537V54.3594C197.537 55.0566 197.396 55.6689 197.115 56.1963C196.834 56.7236 196.348 57.0488 195.656 57.1719V56.3369ZM205.72 41.5889H211.529C212.678 41.5889 213.604 41.9141 214.307 42.5645C215.01 43.209 215.361 44.1172 215.361 45.2891C215.361 46.2969 215.048 47.1758 214.421 47.9258C213.794 48.6699 212.83 49.042 211.529 49.042H207.469V54.5H205.72V41.5889ZM213.595 45.2979C213.595 44.3486 213.243 43.7041 212.54 43.3643C212.153 43.1826 211.623 43.0918 210.949 43.0918H207.469V47.5654H210.949C211.734 47.5654 212.37 47.3984 212.856 47.0645C213.349 46.7305 213.595 46.1416 213.595 45.2979ZM221.083 53.4805C222.132 53.4805 222.85 53.085 223.236 52.2939C223.629 51.4971 223.825 50.6123 223.825 49.6396C223.825 48.7607 223.685 48.0459 223.403 47.4951C222.958 46.6279 222.19 46.1943 221.101 46.1943C220.134 46.1943 219.431 46.5635 218.991 47.3018C218.552 48.04 218.332 48.9307 218.332 49.9736C218.332 50.9756 218.552 51.8105 218.991 52.4785C219.431 53.1465 220.128 53.4805 221.083 53.4805ZM221.145 44.8145C222.357 44.8145 223.383 45.2188 224.221 46.0273C225.059 46.8359 225.478 48.0254 225.478 49.5957C225.478 51.1133 225.108 52.3672 224.37 53.3574C223.632 54.3477 222.486 54.8428 220.934 54.8428C219.639 54.8428 218.61 54.4062 217.849 53.5332C217.087 52.6543 216.706 51.4766 216.706 50C216.706 48.418 217.107 47.1582 217.91 46.2207C218.713 45.2832 219.791 44.8145 221.145 44.8145ZM228.308 51.5469C228.354 52.0742 228.486 52.4785 228.703 52.7598C229.102 53.2695 229.793 53.5244 230.777 53.5244C231.363 53.5244 231.879 53.3984 232.324 53.1465C232.77 52.8887 232.992 52.4932 232.992 51.96C232.992 51.5557 232.813 51.248 232.456 51.0371C232.228 50.9082 231.776 50.7588 231.103 50.5889L229.846 50.2725C229.043 50.0732 228.451 49.8506 228.07 49.6045C227.391 49.1768 227.051 48.585 227.051 47.8291C227.051 46.9385 227.37 46.2178 228.009 45.667C228.653 45.1162 229.518 44.8408 230.602 44.8408C232.02 44.8408 233.042 45.2568 233.669 46.0889C234.062 46.6162 234.252 47.1846 234.24 47.7939H232.746C232.717 47.4365 232.591 47.1113 232.368 46.8184C232.005 46.4023 231.375 46.1943 230.479 46.1943C229.881 46.1943 229.427 46.3086 229.116 46.5371C228.812 46.7656 228.659 47.0674 228.659 47.4424C228.659 47.8525 228.861 48.1807 229.266 48.4268C229.5 48.5732 229.846 48.7021 230.303 48.8135L231.349 49.0684C232.485 49.3438 233.247 49.6104 233.634 49.8682C234.249 50.2725 234.557 50.9082 234.557 51.7754C234.557 52.6133 234.237 53.3369 233.599 53.9463C232.966 54.5557 231.999 54.8604 230.698 54.8604C229.298 54.8604 228.305 54.5439 227.719 53.9111C227.139 53.2725 226.828 52.4844 226.787 51.5469H228.308ZM236.684 42.459H238.283V45.0869H239.786V46.3789H238.283V52.5225C238.283 52.8506 238.395 53.0703 238.617 53.1816C238.74 53.2461 238.945 53.2783 239.232 53.2783C239.309 53.2783 239.391 53.2783 239.479 53.2783C239.566 53.2725 239.669 53.2637 239.786 53.252V54.5C239.604 54.5527 239.414 54.5908 239.215 54.6143C239.021 54.6377 238.811 54.6494 238.582 54.6494C237.844 54.6494 237.343 54.4619 237.079 54.0869C236.815 53.7061 236.684 53.2139 236.684 52.6104V46.3789H235.409V45.0869H236.684V42.459ZM245.007 44.8145C246.067 44.8145 246.929 45.0723 247.591 45.5879C248.259 46.1035 248.66 46.9912 248.795 48.251H247.257C247.163 47.6709 246.949 47.1904 246.615 46.8096C246.281 46.4229 245.745 46.2295 245.007 46.2295C243.999 46.2295 243.278 46.7217 242.845 47.7061C242.563 48.3447 242.423 49.1328 242.423 50.0703C242.423 51.0137 242.622 51.8076 243.021 52.4521C243.419 53.0967 244.046 53.4189 244.901 53.4189C245.558 53.4189 246.076 53.2197 246.457 52.8213C246.844 52.417 247.11 51.8662 247.257 51.1689H248.795C248.619 52.417 248.18 53.3311 247.477 53.9111C246.773 54.4854 245.874 54.7725 244.778 54.7725C243.548 54.7725 242.566 54.3242 241.834 53.4277C241.102 52.5254 240.735 51.4004 240.735 50.0527C240.735 48.4004 241.137 47.1143 241.939 46.1943C242.742 45.2744 243.765 44.8145 245.007 44.8145ZM254.112 53.4805C255.161 53.4805 255.879 53.085 256.266 52.2939C256.658 51.4971 256.854 50.6123 256.854 49.6396C256.854 48.7607 256.714 48.0459 256.433 47.4951C255.987 46.6279 255.22 46.1943 254.13 46.1943C253.163 46.1943 252.46 46.5635 252.021 47.3018C251.581 48.04 251.361 48.9307 251.361 49.9736C251.361 50.9756 251.581 51.8105 252.021 52.4785C252.46 53.1465 253.157 53.4805 254.112 53.4805ZM254.174 44.8145C255.387 44.8145 256.412 45.2188 257.25 46.0273C258.088 46.8359 258.507 48.0254 258.507 49.5957C258.507 51.1133 258.138 52.3672 257.399 53.3574C256.661 54.3477 255.516 54.8428 253.963 54.8428C252.668 54.8428 251.64 54.4062 250.878 53.5332C250.116 52.6543 249.735 51.4766 249.735 50C249.735 48.418 250.137 47.1582 250.939 46.2207C251.742 45.2832 252.82 44.8145 254.174 44.8145ZM261.398 49.9033C261.398 50.9111 261.612 51.7549 262.04 52.4346C262.468 53.1143 263.153 53.4541 264.097 53.4541C264.829 53.4541 265.43 53.1406 265.898 52.5137C266.373 51.8809 266.61 50.9756 266.61 49.7979C266.61 48.6084 266.367 47.7295 265.881 47.1611C265.395 46.5869 264.794 46.2998 264.079 46.2998C263.282 46.2998 262.635 46.6045 262.137 47.2139C261.645 47.8232 261.398 48.7197 261.398 49.9033ZM263.78 44.9199C264.501 44.9199 265.104 45.0723 265.591 45.377C265.872 45.5527 266.191 45.8604 266.549 46.2998V41.5449H268.069V54.5H266.646V53.1904C266.276 53.7705 265.84 54.1895 265.336 54.4473C264.832 54.7051 264.255 54.834 263.604 54.834C262.556 54.834 261.647 54.3945 260.88 53.5156C260.112 52.6309 259.729 51.4561 259.729 49.9912C259.729 48.6201 260.077 47.4336 260.774 46.4316C261.478 45.4238 262.479 44.9199 263.78 44.9199ZM274.336 44.876C275.004 44.876 275.651 45.0342 276.278 45.3506C276.905 45.6611 277.383 46.0654 277.711 46.5635C278.027 47.0381 278.238 47.5918 278.344 48.2246C278.438 48.6582 278.484 49.3496 278.484 50.2988H271.585C271.614 51.2539 271.84 52.0215 272.262 52.6016C272.684 53.1758 273.337 53.4629 274.222 53.4629C275.048 53.4629 275.707 53.1904 276.199 52.6455C276.48 52.3291 276.68 51.9629 276.797 51.5469H278.353C278.312 51.8926 278.174 52.2793 277.939 52.707C277.711 53.1289 277.453 53.4746 277.166 53.7441C276.686 54.2129 276.091 54.5293 275.382 54.6934C275.001 54.7871 274.57 54.834 274.09 54.834C272.918 54.834 271.925 54.4092 271.11 53.5596C270.296 52.7041 269.889 51.5088 269.889 49.9736C269.889 48.4619 270.299 47.2344 271.119 46.291C271.939 45.3477 273.012 44.876 274.336 44.876ZM276.858 49.042C276.794 48.3564 276.645 47.8086 276.41 47.3984C275.977 46.6367 275.253 46.2559 274.239 46.2559C273.513 46.2559 272.903 46.5195 272.411 47.0469C271.919 47.5684 271.658 48.2334 271.629 49.042H276.858Z" fill="#4F4F4F"/>
<path d="M431 29L438 36L431 43" stroke="#BDBDBD" stroke-width="1.5" stroke-linecap="round" stroke-linejoin="round"/>
<defs>
<filter id="filter0_d_18_161" x="3" y="3" width="66" height="66" filterUnits="userSpaceOnUse" color-interpolation-filters="sRGB">
<feFlood flood-opacity="0" result="BackgroundImageFix"/>
<feColorMatrix in="SourceAlpha" type="matrix" values="0 0 0 0 0 0 0 0 0 0 0 0 0 0 0 0 0 0 127 0" result="hardAlpha"/>
<feOffset/>
<feGaussianBlur stdDeviation="2.5"/>
<feComposite in2="hardAlpha" operator="out"/>
<feColorMatrix type="matrix" values="0 0 0 0 0 0 0 0 0 0 0 0 0 0 0 0 0 0 0.1 0"/>
<feBlend mode="normal" in2="BackgroundImageFix" result="effect1_dropShadow_18_161"/>
<feBlend mode="normal" in="SourceGraphic" in2="effect1_dropShadow_18_161" result="shape"/>
</filter>
</defs>
</svg>
